# xmcd
#
# Track frame offsets:
#	182
#	14507
#	28407
#
# Disc length: 567 seconds
#
# Revision: 0
# Processed by: cddbd v1.5.2PL0 Copyright (c) Steve Scherf et al.
# Submitted via: audiograbber 1.83.01
#
DISCID=21023503
DTITLE=Die Grombacher - Das geht vorbei
DYEAR=2000
DGENRE=Volksmusik
TTITLE0=Das geht vorbei
TTITLE1=Echt gut
TTITLE2=Das geht vorbei (karaoke)
EXTD=<http://www.hit-radio24.de>
EXTT0=
EXTT1=
EXTT2=
PLAYORDER=
